<?xml version="1.0" encoding="UTF-8"?>
<!DOCTYPE svg PUBLIC "-//W3C//DTD SVG 1.1//EN" "http://www.w3.org/Graphics/SVG/1.1/DTD/svg11.dtd">
<!-- Creator: CorelDRAW -->
<svg xmlns="http://www.w3.org/2000/svg" xml:space="preserve" width="389.987mm" height="485.995mm" version="1.1" style="shape-rendering:geometricPrecision; text-rendering:geometricPrecision; image-rendering:optimizeQuality; fill-rule:evenodd; clip-rule:evenodd"
viewBox="0 0 12217.2 15224.86"
 xmlns:xlink="http://www.w3.org/1999/xlink"
 xmlns:xodm="http://www.corel.com/coreldraw/odm/2003">
 <defs>
  <style type="text/css">
   <![CDATA[
    .fil4 {fill:none}
    .fil7 {fill:#FEFEFE}
    .fil3 {fill:#040D12}
    .fil12 {fill:url(#id4)}
    .fil9 {fill:url(#id5)}
    .fil13 {fill:url(#id6)}
    .fil14 {fill:url(#id7)}
    .fil5 {fill:url(#id8)}
    .fil8 {fill:url(#id9)}
    .fil0 {fill:url(#id10)}
    .fil6 {fill:url(#id11)}
    .fil10 {fill:url(#id12)}
    .fil1 {fill:url(#id13)}
    .fil15 {fill:url(#id14)}
    .fil2 {fill:url(#id15)}
    .fil11 {fill:url(#id16)}
   ]]>
  </style>
    <mask id="id0">
  <linearGradient id="id1" gradientUnits="userSpaceOnUse" x1="9469.62" y1="6051.08" x2="7945.16" y2="6421.2">
   <stop offset="0" style="stop-opacity:1; stop-color:white"/>
   <stop offset="0.819608" style="stop-opacity:0.501961; stop-color:white"/>
   <stop offset="1" style="stop-opacity:0; stop-color:white"/>
  </linearGradient>
     <rect style="fill:url(#id1)" x="7888.19" y="5860.43" width="1719.54" height="569.09"/>
    </mask>
    <mask id="id2">
  <linearGradient id="id3" gradientUnits="userSpaceOnUse" x1="11941.83" y1="669.77" x2="7746.85" y2="6424.25">
   <stop offset="0" style="stop-opacity:1; stop-color:white"/>
   <stop offset="0.901961" style="stop-opacity:0.501961; stop-color:white"/>
   <stop offset="1" style="stop-opacity:0; stop-color:white"/>
  </linearGradient>
     <rect style="fill:url(#id3)" x="7805.73" y="-3.13" width="4414.6" height="6184.62"/>
    </mask>
  <linearGradient id="id4" gradientUnits="objectBoundingBox" x1="50%" y1="100%" x2="50%" y2="7.03944e-13%">
   <stop offset="0" style="stop-opacity:1; stop-color:#E36229"/>
   <stop offset="0.258824" style="stop-opacity:1; stop-color:#FE7704"/>
   <stop offset="0.501961" style="stop-opacity:1; stop-color:#FF7872"/>
   <stop offset="0.721569" style="stop-opacity:1; stop-color:#FF4B2A"/>
   <stop offset="0.839216" style="stop-opacity:1; stop-color:#F73325"/>
   <stop offset="1" style="stop-opacity:1; stop-color:#FF452C"/>
  </linearGradient>
  <linearGradient id="id5" gradientUnits="userSpaceOnUse" x1="9495.61" y1="6540.76" x2="9495.61" y2="736.75">
   <stop offset="0" style="stop-opacity:1; stop-color:#FD4928"/>
   <stop offset="0.188235" style="stop-opacity:1; stop-color:#FE3E29"/>
   <stop offset="0.501961" style="stop-opacity:1; stop-color:#FF7129"/>
   <stop offset="0.721569" style="stop-opacity:1; stop-color:#E4612B"/>
   <stop offset="0.839216" style="stop-opacity:1; stop-color:#E36229"/>
   <stop offset="1" style="stop-opacity:1; stop-color:#FF5029"/>
  </linearGradient>
  <linearGradient id="id6" gradientUnits="userSpaceOnUse" x1="8899.19" y1="8069.97" x2="9249.26" y2="8069.97">
   <stop offset="0" style="stop-opacity:1; stop-color:#EFFFFF"/>
   <stop offset="1" style="stop-opacity:1; stop-color:#FEFEFE"/>
  </linearGradient>
  <linearGradient id="id7" gradientUnits="userSpaceOnUse" x1="7891.33" y1="6144.97" x2="9604.6" y2="6144.97">
   <stop offset="0" style="stop-opacity:1; stop-color:white"/>
   <stop offset="1" style="stop-opacity:1; stop-color:#A8FEFB"/>
  </linearGradient>
  <linearGradient id="id8" gradientUnits="objectBoundingBox" x1="0%" y1="50%" x2="100%" y2="50%">
   <stop offset="0" style="stop-opacity:1; stop-color:#29BEFF"/>
   <stop offset="0.501961" style="stop-opacity:1; stop-color:#25A7E3"/>
   <stop offset="1" style="stop-opacity:1; stop-color:#2DCCF4"/>
  </linearGradient>
  <linearGradient id="id9" gradientUnits="userSpaceOnUse" x1="-0" y1="12210.86" x2="5499.94" y2="12210.86">
   <stop offset="0" style="stop-opacity:1; stop-color:#E36229"/>
   <stop offset="0.188235" style="stop-opacity:1; stop-color:#E26128"/>
   <stop offset="0.34902" style="stop-opacity:1; stop-color:#FF6529"/>
   <stop offset="0.490196" style="stop-opacity:1; stop-color:#FF6029"/>
   <stop offset="0.74902" style="stop-opacity:1; stop-color:#FF402D"/>
   <stop offset="1" style="stop-opacity:1; stop-color:#FF372A"/>
  </linearGradient>
  <linearGradient id="id10" gradientUnits="objectBoundingBox" xlink:href="#id4" x1="0%" y1="50%" x2="100%" y2="50%">
  </linearGradient>
  <linearGradient id="id11" gradientUnits="userSpaceOnUse" xlink:href="#id8" x1="6764.36" y1="8247.43" x2="6971.69" y2="8247.43">
  </linearGradient>
  <linearGradient id="id12" gradientUnits="userSpaceOnUse" x1="3598.45" y1="9722.75" x2="4238.36" y2="9492.18">
   <stop offset="0" style="stop-opacity:1; stop-color:#29FFFF"/>
   <stop offset="0.188235" style="stop-opacity:1; stop-color:#28B4E7"/>
   <stop offset="0.501961" style="stop-opacity:1; stop-color:#29FFFF"/>
   <stop offset="0.721569" style="stop-opacity:1; stop-color:#28B4E7"/>
   <stop offset="0.839216" style="stop-opacity:1; stop-color:#29FFFF"/>
   <stop offset="1" style="stop-opacity:1; stop-color:#28B4E7"/>
  </linearGradient>
  <linearGradient id="id13" gradientUnits="objectBoundingBox" xlink:href="#id4" x1="3.27681%" y1="73.9875%" x2="96.7232%" y2="26.0125%">
  </linearGradient>
  <linearGradient id="id14" gradientUnits="userSpaceOnUse" xlink:href="#id4" x1="8268.46" y1="5594.26" x2="12804.34" y2="-753.36">
  </linearGradient>
  <linearGradient id="id15" gradientUnits="userSpaceOnUse" xlink:href="#id8" x1="6108.01" y1="10505.95" x2="6274.04" y2="2996.56">
  </linearGradient>
  <linearGradient id="id16" gradientUnits="userSpaceOnUse" xlink:href="#id4" x1="4935.54" y1="9696.45" x2="2048.72" y2="12872.79">
  </linearGradient>
 </defs>
 <g id="Слой_x0020_1">
  <metadata id="CorelCorpID_0Corel-Layer"/>
  <g id="_2375796361072">
   <path class="fil0" d="M8888.68 6417.09c24.01,10.03 36.02,15.04 36.02,15.04 22.57,-63.78 13.88,-119.54 -26.06,-167.3 -16.26,-34.07 -29.01,-81.7 -38.25,-142.92 2.15,-26.5 9.02,-47.8 20.6,-63.89 36.4,-61.82 64.24,-105.62 83.53,-131.42 37,-42.54 55.51,-63.8 55.51,-63.8 24.38,-28.81 39.9,-50.89 46.56,-66.24 44.79,-88.11 67.18,-132.17 67.18,-132.17 9.12,-21.34 3.81,-40.5 -15.94,-57.49 -54.12,-59.3 -91.72,-106.68 -112.79,-142.16 -20.77,-42.13 -30.66,-75.14 -29.68,-99.05 -4.73,-2.99 -6.71,-1.64 -5.94,4.06 -0.84,33.42 8.12,64.88 26.87,94.36 31.26,50.46 68.34,98.16 111.23,143.1 24.25,22.24 29.31,43.46 15.16,63.66 -26.49,48.33 -49.07,89.8 -67.75,124.41 -21.09,34.71 -53.17,73.87 -96.24,117.49 -43.32,50.14 -77.69,94.61 -103.11,133.42 -36.05,33.42 -48.55,66.64 -37.5,99.68 12.71,67.07 19.06,100.61 19.06,100.61 4.55,23.67 17.67,47.11 39.37,70.3 19.22,28.49 23.28,61.92 12.19,100.3z"/>
   <path class="fil0" d="M9188.06 6734.65c-16.07,-31.46 -24.11,-47.19 -24.11,-47.19 28.83,-26.18 57.41,-42.49 85.75,-48.92 56.76,-133.69 105.85,-216.81 147.29,-249.35 16.26,-15.44 39.75,-22.28 70.49,-20.52 20.96,4.83 32.36,-0.95 34.19,-17.36 45.88,-166.93 69.9,-283.88 72.07,-350.87 8.44,-72.54 12.65,-108.81 12.65,-108.81 2.51,-20.17 14.05,-25.87 34.61,-17.1 112.59,28.49 191.68,46.07 237.29,52.75 66.24,4.87 109.2,-13.2 128.89,-54.19 17.05,-61.98 22.67,-112.84 16.84,-152.56 -2.55,-27.76 -14.82,-48.1 -36.83,-61.02 -29.15,-20.54 -45.99,-47.89 -50.5,-82.07 -22.92,-79.21 -31.34,-157.77 -25.25,-235.67 6.91,-49.71 5.51,-82.33 -4.21,-97.85 -20.25,-31.37 -55.68,-70.85 -106.31,-118.45 -35.77,-40.08 -70.65,-51.4 -104.65,-33.96 -44.73,29.75 -73.59,48 -86.59,54.77 32.64,-59.77 48.96,-89.66 48.96,-89.66 38.11,-27.59 77.17,-30.55 117.19,-8.87 32.81,22.32 64.63,52.61 95.47,90.88 72.48,71.69 97.88,125.44 76.19,161.25 3.47,81.6 5.2,122.4 5.2,122.4 6.28,70.87 16.58,122.18 30.9,153.91 10.63,26.97 22.87,43.08 36.72,48.34 33.68,34.57 50.41,67.1 50.18,97.61 4.19,77.88 -5.91,139.89 -30.29,186.04 -26.01,40.27 -63.3,62.27 -111.88,65.98 -72.12,4.06 -165.15,-12.88 -279.12,-50.82 -8.14,102.74 -20.45,190.24 -36.94,262.51 -29.56,120.11 -44.34,180.17 -44.34,180.17 -12.18,37.49 -35.16,54.36 -68.94,50.62 -24.27,-3.67 -44.75,1.9 -61.44,16.71 -37.44,33.93 -73.31,97.57 -107.61,190.92 -4.26,30.6 -14.53,45.63 -30.79,45.08 -60.72,43.53 -91.09,65.3 -91.09,65.3z"/>
   <path class="fil0" d="M8431.35 3912.02c40.42,22.4 73.33,40.49 98.71,54.27 0,0 4.86,-5.89 14.59,-17.68 -25.52,-22.02 -66.38,-46.28 -122.57,-72.76 -42.71,-12.64 -119.48,-21.5 -230.28,-26.58 -37.35,-1.63 -88.87,0.54 -154.55,6.49 -32.54,4.23 -45.83,25.04 -39.87,62.44 6.64,17.72 1.49,49.04 -15.45,93.97 -10.37,33.24 -41.69,120.82 -93.97,262.74 -16.61,15.48 -48.65,53.81 -96.13,114.99 0,0 -42.86,51.62 -128.59,154.86 -30.26,38.91 -70.65,73.02 -121.17,102.31 -31.81,16.7 -71.37,21.85 -118.69,15.45 -27.8,-3.52 -81.8,-2.8 -161.97,2.16 -46.92,5.19 -124.61,11.68 -233.06,19.47 -65.75,2.59 -133.76,18.95 -204.03,49.06 52.79,-63.8 82.42,-125.99 88.9,-186.54 6.66,-56.33 20.95,-94.91 42.85,-115.73 15.03,-14.19 45.53,-19.44 91.5,-15.72 39.95,9.81 76.64,18.09 110.05,24.84 41.4,6.02 83.95,-0.9 127.66,-20.75 30.06,-8.54 68.53,-28.14 115.4,-58.8 3.26,-0.7 -18.64,9.89 -65.71,31.76 -71.54,36.95 -141.2,48.2 -208.98,33.74 -24.25,-8.36 -60.37,-16.08 -108.36,-23.16 -55.64,-2.53 -89.01,24.95 -100.12,82.45 -11.09,60.31 -32.55,116.98 -64.39,170 -23.26,33.52 -72.2,89.27 -146.84,167.25 -21.07,10.42 -43.84,29.26 -68.31,56.54 -22.8,22.83 -62.33,57.39 -118.57,103.65 -29.98,25.84 -74.08,35.79 -132.31,29.84 -54.47,-5.73 -90.85,1.47 -109.15,21.59 -33.44,1.94 -104.25,69.34 -212.4,202.19 38.53,-12.42 78.28,-20.65 118.57,-24.55 0,0 16.93,-20 50.79,-59.99 30.65,-38.4 63.01,-57.36 97.1,-56.87 6.38,17.93 21.9,29.18 46.56,33.75 49.96,14.61 111.9,-7.29 185.83,-65.68 40.03,-25.49 77.88,-65.56 113.54,-120.22 15.99,-3.42 27.67,-13.46 35.02,-30.11 46.71,-54.69 99.1,-97.47 157.17,-128.33 48.95,-18.82 114.79,-32.73 197.54,-41.71 85.61,-13.14 168.74,-24.23 249.38,-33.25 38.53,-5.65 94.99,-6.69 169.37,-3.12 35.91,-0.2 77.36,-17.08 124.34,-50.65 33.02,-25.76 73.19,-68.24 120.52,-127.43 51.9,-54.23 102.37,-119.29 151.42,-195.18 19.08,-14.11 43.45,-35.4 73.1,-63.86 21.44,-15.75 35.44,-42.08 42.01,-78.99 4.6,-16.87 18.29,-34.86 41.06,-53.97 15.98,-14 32.98,-30.18 50.98,-48.54 9.87,-10.3 21.97,-15.79 36.3,-16.45 18.19,-3.09 42.3,-3.14 72.33,-0.13 16.86,2.9 31.25,13.14 43.18,30.74 0,0 18.19,22.59 54.58,67.76 8.36,8.2 19.1,8.83 32.22,1.9 9.32,-5.19 17.07,-7.41 23.25,-6.66 0,0 3.17,-3.4 9.52,-10.2 -11.92,1.41 -23.21,4.9 -33.85,10.47 -14.36,7.02 -25.57,3.38 -33.63,-10.92 -14.33,-18.45 -29.17,-37.42 -44.51,-56.91 -11.67,-15.37 -23.6,-25.39 -35.77,-30.08 -19.28,-4.22 -51.12,-5.1 -95.52,-2.64 -14.91,0.71 -30.63,10.94 -47.15,30.69 -5.26,6.97 -25.18,24.45 -59.75,52.44 -12.47,11.48 -23.45,31.12 -32.92,58.94 -4.28,14.97 -16.61,33.4 -36.99,55.28 -9.3,6.69 -12.69,5.05 -10.16,-4.92 22.27,-68.27 46.28,-140.5 72.02,-216.68 20.14,-47.53 28.18,-88.64 24.11,-123.33 -1.57,-25.95 13.68,-38.11 45.75,-36.47 87.05,-2.38 164.64,0.09 232.75,7.42 54.15,2.98 96.08,11.02 125.8,24.11z"/>
   <path class="fil0" d="M8459.05 4044.85c34.07,-37.52 51.1,-56.28 51.1,-56.28 0,0 -12.11,-69.24 -36.34,-207.73 -4.27,-11.75 -4.59,-20.84 -0.94,-27.26 9.41,-40.76 30.93,-85.77 64.54,-135.04 32.45,-49.46 41.32,-94.99 26.63,-136.61 -8.09,-28.62 -6.45,-53.87 4.9,-75.76 13.6,-40.54 43.98,-97.83 91.16,-171.87 59.54,43.08 147.1,65.66 262.67,67.74 -73.62,0.91 -157.49,-25.72 -251.61,-79.88 -13.42,-7.76 -21.56,-5.55 -24.42,6.63 -33.54,43.38 -68.12,108.98 -103.73,196.83 -8.35,16.18 -6.52,39.27 5.5,69.27 7.28,22.43 -1.28,54.81 -25.66,97.13 -20.15,25.52 -41.9,61.92 -65.25,109.23 -3.6,-41.36 -11.42,-85.95 -23.46,-133.79 -18.59,-65.46 -45.22,-152.09 -79.9,-259.87 -23.68,-67.86 -37,-145.32 -39.95,-232.38 -4.53,-23.14 25.16,-53.44 89.07,-90.9 71.87,-42.61 138.65,-87.21 200.36,-133.82 42.66,-28.39 80.85,-86.12 114.55,-173.2 106.89,49.17 311.24,179.37 613.07,390.59 0,0 8.15,-10.54 24.45,-31.61 0,0 -141.62,-95.12 -424.87,-285.35 -47.5,-35.66 -116.21,-74.57 -206.11,-116.75 -21.06,-14.09 -35.67,-4.12 -43.84,29.92 -18.27,55.46 -46.03,101.13 -83.29,137.03 -35.7,38.42 -128.89,102.62 -279.57,192.62 -25.84,16.48 -39.95,41.26 -42.31,74.36 -2.69,57.98 9.5,140.26 36.58,246.84 30.11,84.62 58.93,182.68 86.47,294.17 7.89,165.53 27.95,310.78 60.19,435.75z"/>
   <path class="fil0" d="M5650.32 5633.97c-14.26,31.47 -46.08,72.03 -95.45,121.68 -8.46,-20.88 -4.35,-40.79 12.34,-59.72 61.01,-125.69 79.77,-215.51 56.26,-269.46 -22.55,-43.92 -71.08,-86.36 -145.59,-127.33 -67.49,-65.18 -104.51,-130.49 -111.04,-195.93 4.9,-21.73 16.96,-39.97 36.2,-54.73 92.21,-79.2 156.65,-165.9 193.3,-260.1 -48.14,120.63 -100.01,203.47 -155.61,248.53 -43.17,27.06 -59.87,57.82 -50.1,92.27 37.87,89.48 85.35,151.33 142.45,185.55 77,50.85 119.71,99.96 128.12,147.34 13.26,57.18 9.63,114.48 -10.89,171.89z"/>
   <path class="fil1" d="M2526.3 10957.61c17.3,-30.82 25.95,-46.23 25.95,-46.23 -16.52,-10.26 -34.3,-15.59 -53.34,-16 -16.94,-3.73 -33.48,-12.71 -49.61,-26.94 -35.15,-19.81 -65.91,-22.74 -92.27,-8.8 -29.65,14.59 -53.21,30.23 -70.67,46.94 -37.86,34.88 -73.5,56.83 -106.94,65.87 -68.31,22.17 -117.2,47.86 -146.68,77.07 -137.13,119.06 -205.7,178.59 -205.7,178.59 -75.04,65.84 -112.56,98.76 -112.56,98.76 -26.94,23.1 -48.1,54.28 -63.49,93.54 -22.14,37.13 -45.34,67.39 -69.62,90.78 -54.82,58.79 -79.25,130.56 -73.3,215.3 5.96,36.28 20.68,84.23 44.17,143.84 22.06,75.64 26.25,177.16 12.57,304.55 -11.04,86.69 -16.56,130.04 -16.56,130.04 1.52,6.14 3.87,6.14 7.05,0 16.98,-127.83 24.64,-202.56 23,-224.2 1.55,-93.01 -5.41,-166.11 -20.86,-219.29 -25.76,-80.73 -37.31,-144.32 -34.65,-190.76 5.27,-47.71 21.01,-88.09 47.23,-121.15 52.25,-48.62 83.84,-88.7 94.77,-120.23 21.16,-44.33 39.26,-72.14 54.28,-83.42 105.91,-90.78 158.87,-136.17 158.87,-136.17 103.25,-84.65 154.88,-126.97 154.88,-126.97 39.05,-31.62 68.9,-50.94 89.55,-57.96 59.26,-17.51 97.19,-31.92 113.78,-43.24 32.4,-18.79 52.85,-33.31 61.34,-43.55 32.24,-26.1 59.84,-39.19 82.81,-39.26 23.17,2.25 41.16,11.76 53.98,28.52 17.8,11.07 38.34,17.1 61.65,18.09 18.42,2.87 28.54,6.96 30.36,12.27z"/>
   <path class="fil0" d="M4035.34 8659.73c-5.02,92.54 -78.12,150.32 -218.16,173.16 -18.81,-2.92 -30.67,3.58 -34.45,19.32 -59.16,77.53 -115.45,131.36 -168.88,161.48 -23.03,11.15 -45.73,10.37 -68.1,-2.33 -27.16,-8.95 -50.12,-4.41 -68.87,13.62 -71.72,104.67 -134.63,211.55 -188.72,320.63 -17.99,37.05 -30.53,66.24 -37.63,87.59 -37.17,-30.32 -85.28,-61.13 -144.31,-92.43 -86.89,-50.32 -159.22,-59.75 -216.99,-28.26 -41.77,29.67 -74.25,82.25 -97.45,157.74 -16.14,51.41 -12.53,93.95 10.81,127.62 19.02,22.87 26.38,51.49 22.07,85.86 -1.71,48.47 -18.38,129.81 -50,244.02 -24.11,18.5 -30.13,47.67 -18.05,87.51 19.82,51.96 42.59,107.4 68.32,166.32 28.15,54.13 63.38,79.8 105.68,77.02 19.96,-34.63 29.94,-51.94 29.94,-51.94 -37.93,10.37 -66.42,0.64 -85.46,-29.17 -42.44,-75.15 -69.13,-129.48 -80.09,-162.99 -9.33,-26.01 -7.54,-50.75 5.37,-74.2 23.15,-40.6 39.61,-85.89 49.38,-135.87 14.75,-72.55 21.41,-124.41 19.96,-155.57 -1.02,-26.57 -8.26,-49 -21.75,-67.3 -20.33,-23.35 -25.36,-52.26 -15.1,-86.74 15.4,-47.48 31.43,-83.81 48.11,-109 30.8,-40.61 68.5,-54.51 113.1,-41.71 49.22,17.16 100.39,42.67 153.53,76.5 41.5,27.32 73.22,48.9 95.18,64.74 14.39,10.16 26.51,8.96 36.34,-3.58 43.94,-98.28 80.27,-173.59 109,-225.94 44.5,-78.99 77.51,-133.16 99.02,-162.48 15.25,-30.06 30.01,-42.57 44.28,-37.54 36.09,16.16 66.27,18.28 90.55,6.38 44.57,-18.57 93.63,-57.86 147.2,-117.85 35.66,-36.81 56.97,-60.82 63.93,-72.03 85.3,-4.61 152.7,-31.32 202.19,-80.13 21.92,-27.69 34.64,-48.23 38.18,-61.61 -25.42,-47.22 -38.13,-70.83 -38.13,-70.83z"/>
   <path class="fil1" d="M4033.24 8211.3c20.4,-44.51 30.6,-66.76 30.6,-66.76 -51.28,-28.1 -110.78,-54.03 -178.51,-77.78 -76.69,-32.54 -141.68,-95.94 -194.96,-190.19 -10.84,-19.64 -11.65,-35.06 -2.44,-46.27 43.89,-84.62 63.7,-158.82 59.42,-222.58 1.59,-21.03 0.31,-41.82 -3.86,-62.37 -4.91,-16.23 1.23,-24.22 18.4,-23.95 146.91,8.89 238.63,7.05 275.14,-5.55 64.82,2.7 136.87,-33.52 216.14,-108.66 5.65,-88.6 8.47,-132.9 8.47,-132.9 -51.6,74.95 -103.4,121.88 -155.39,140.78 -86.15,39.02 -177.28,51.58 -273.39,37.68 -84.66,-9.27 -134.71,3.19 -150.14,37.39 -9.32,20.13 -11.95,55.96 -7.89,107.49 0.95,77.23 -14.34,138.57 -45.86,184.01 -30.39,40.76 -33.12,83.6 -8.18,128.52 44.1,69.23 82.94,119.95 116.54,152.17 55.2,42.66 113.71,74.49 175.54,95.51 80.23,35.63 120.34,53.45 120.34,53.45z"/>
   <path class="fil2" d="M3984.37 8658.94c47.12,86.76 70.68,130.15 70.68,130.15 55.31,112.74 92.79,206.86 112.45,282.37 31.17,103.22 70.12,183.72 116.85,241.49 67.54,-76.64 110.75,-115.33 129.65,-116.08 -25.93,-50.61 -23.79,-49.4 -37.58,-93.14 -34.8,-86.26 -65.66,-143.3 -92.6,-171.13 -15.73,-40.03 -53.27,-113.13 -112.61,-219.28 77.14,65.71 123.56,99.54 139.27,101.49 -81.31,-99.08 -155.64,-204.27 -222.99,-315.59 -39.12,-103.31 -27.76,-199.61 34.08,-288.92 95.49,-122.12 155.01,-221.39 178.54,-297.81 52.31,-153.55 76.02,-292.83 71.12,-417.82 -9.81,-147.98 -12.4,-246.39 -7.76,-295.21 7.69,-95.39 45.39,-174.3 113.1,-236.71 168.54,-128.02 267.99,-226.61 298.35,-295.78 39.14,-84.41 66.68,-162.49 82.63,-234.22 21.6,-77.75 39.53,-127.32 53.78,-148.69 26.13,-36.06 43.54,-59.31 52.22,-69.76 69.43,-70.74 124.56,-117.8 165.4,-141.18 53.25,-36.17 135.22,-67.59 245.93,-94.25 90,-24.43 163.06,-66.81 219.19,-127.13 69.4,-74.77 133.97,-163.33 193.71,-265.68 43.89,-88.22 115.15,-160.34 213.79,-216.36 200.68,-82.59 371.45,-69.24 512.31,40.03 154.3,124.93 327.12,279.2 518.46,462.83 -64.05,-120.14 -158.5,-247.58 -283.37,-382.34 134.68,86.12 239.18,179.44 313.51,279.96 166.02,162.53 315.65,312.38 448.91,449.52 -250.35,-187.62 -375.53,-281.43 -375.53,-281.43 -15.45,-12.44 -17.86,-10.98 -7.22,4.39 43.75,45.93 139.99,138.68 288.7,278.25 123.03,108.57 214.48,212.06 274.35,310.46 30.58,97.28 56.97,171.22 79.18,221.84 15.27,46.26 21.95,94.92 19.7,143.58 26.14,-38.54 37.93,-85.03 33.31,-131.38 39.97,73.77 59.57,156.85 56.77,240.7 -23.91,48.75 -38.5,91.54 -43.77,128.35 -30.5,54.08 -62.13,116.27 -94.9,186.58 -81.23,167.37 -182.02,247.61 -302.39,240.73 101.38,-66.09 172.51,-138.47 213.39,-217.14 59.15,-96.49 104.45,-200.81 134.58,-309.9 -110.27,223.39 -205.88,362.79 -286.84,418.2 -69.7,59.89 -167.1,55.77 -292.2,-12.33 -205.96,-109.6 -389.68,-261.15 -551.16,-454.66 -153.73,-162.57 -287.24,-298.94 -400.51,-409.09 -43.79,-40.36 -101.32,-126.75 -172.59,-259.18 8.87,78.25 60.09,194.46 153.65,348.66 -67.81,-39.84 -142.48,-66.65 -220.14,-79.06 103.48,58.08 203.52,122.11 299.6,191.76 123.62,130.6 283.47,273.59 479.53,428.96 196.8,175.89 333.86,324.98 411.2,447.3 76.98,122.51 113.15,246.1 108.5,370.78 -17.26,144.88 -68.43,263.25 -153.52,355.11 -148.36,141.97 -261.99,190.53 -340.89,145.67 -117.23,-27.19 -336.91,-188.57 -659.04,-484.13 -188.19,-177.39 -364.55,-356.94 -529.09,-538.67 -46.06,-38.53 -81.68,-101.96 -106.86,-190.29 -29.65,-98.27 -48.13,-153.01 -55.45,-164.21 -4,83.1 5.22,166.31 27.3,246.52 -112.31,-116.3 -168.47,-174.44 -168.47,-174.44 69.72,121.23 147.49,231.13 233.3,329.69 133.86,154.58 273.76,301.58 419.69,441.01 139.58,132.52 288.71,276.39 447.41,431.63 99.84,102.14 179.32,187.99 238.46,257.56 45.33,75.91 49.79,150.82 13.35,224.75 -57.15,90.79 -138.37,169.91 -243.67,237.36 -28.21,16.99 -86.44,18.72 -174.69,5.19 -147.46,-31.78 -402.56,-208.55 -765.29,-530.33 -226.86,-203.77 -399.45,-354.38 -517.77,-451.84 -82.63,-74.95 -173.04,-140.84 -269.7,-196.53 68.4,98.49 147.99,188.72 237.17,268.89 -136.57,-45.57 -220.65,-67.44 -252.22,-65.61 57.08,19.05 111.9,44.3 163.49,75.29 228.74,176.75 343.11,265.13 343.11,265.13 312.28,248.46 468.41,372.69 468.41,372.69 266.03,222.29 399.04,333.43 399.04,333.43 121.12,107.2 159.84,189.65 116.16,247.38 -84.82,101.89 -143.08,170.55 -174.78,205.97 -45.9,22.26 -74.74,31.02 -86.54,26.27 159.77,-140.67 233.82,-258.98 222.15,-354.94 -61.27,128.63 -150.49,236.18 -267.66,322.67 -37.82,27.03 -78.77,35.72 -122.86,26.06 -100.85,-31.56 -244.48,-99.89 -430.91,-204.99 -192.25,-105.82 -407.84,-249.69 -646.78,-431.61 -87.48,-64.02 -153.27,-117.77 -197.37,-161.26 -4.91,34.36 7.62,103.98 37.58,208.85 -49.79,-52.01 -74.69,-78.02 -74.69,-78.02 8.34,55.7 46.08,120.56 113.23,194.58 22.85,-35.79 34.27,-53.68 34.27,-53.68 234.99,189.06 484.84,361.06 749.55,515.98 105.62,68.26 182.9,111.36 231.84,129.31 230.46,78.59 386.71,97.72 468.77,57.4 131.53,-83.61 243.89,-174.55 337.07,-272.81 90.39,-51.03 168.64,-96.5 234.77,-136.4 98.1,-68.37 182.48,-133.95 253.13,-196.73 190.86,-172.21 319.83,-328.73 386.91,-469.54 109.79,-86.24 176.04,-133.05 198.76,-140.43 174.84,136.1 323.83,180.49 446.98,133.14 71.92,-33.56 134.02,-66.17 186.32,-97.83 54.58,-29.77 89.81,-48.36 105.69,-55.78 62.53,-36.52 96.29,-62.78 101.28,-78.78 129.65,-103.35 237.62,-193.21 323.9,-269.6 139.32,-132.6 229.18,-241.71 269.6,-327.33 56.05,-74.47 108.41,-149 157.06,-223.6 127.21,-195.71 190.82,-293.57 190.82,-293.57 57.7,-75.65 81.35,-144.8 70.95,-207.45 -4.63,-41.37 -6.27,-76.76 -4.89,-106.17 -5.16,-42.93 -31.25,-110.45 -78.29,-202.56 -47.32,-122.56 -106.36,-237.54 -177.12,-344.94 -80.13,-92.14 -161.53,-151.59 -244.21,-178.35 -67.92,-24.01 -144.08,-39.89 -228.48,-47.65 -64.55,-9.49 -129.93,-33.03 -196.14,-70.63 -164.23,-82.54 -246.34,-123.81 -246.34,-123.81 -168.98,254.45 -253.47,381.68 -253.47,381.68 -81.52,-249.01 -308.44,-535.54 -680.76,-859.61 -120.83,-86.04 -244.55,-172.34 -371.16,-258.9 -237.78,-155.43 -456.26,-226.75 -655.44,-213.96 -160.7,13.25 -293.06,69.78 -397.08,169.56 -51.73,57.75 -107.43,140.58 -167.1,248.49 -56.39,101.99 -131.6,171.3 -225.64,207.94 -104.38,39.37 -218.92,94.54 -343.62,165.51 -130.87,79.69 -224.11,172.94 -279.74,279.74 -53.24,125.85 -94.08,229.37 -122.51,310.56 -29.3,73.18 -79.26,135.35 -149.88,186.5 -143.99,126.06 -232.35,264.94 -265.08,416.63 -4.07,246.19 -16.18,413.79 -36.33,502.81 -19.33,116.65 -72.26,257.27 -158.8,421.86 -80.39,165.49 -120.06,275.38 -118.99,329.68 6.93,80.89 33.46,151.34 79.59,211.36z"/>
   <path class="fil3" d="M8523.99 6788.01c-161.87,-57.91 -302.38,-29.55 -421.51,85.06 -107.1,92.87 -168.5,172.7 -184.21,239.47 -36.91,158.01 -88.81,283.03 -155.71,375.06 -92.3,128.75 -162.5,221.72 -210.59,278.9 -60.7,79.03 -114.41,183.46 -161.13,313.3 -17.06,54 -26.31,119.45 -27.74,196.35 16.47,-39.53 44.17,-73.38 79.66,-97.36 -50.97,71.66 -49.59,168.1 3.41,238.28 80.99,114.29 179.48,185.54 295.47,213.77 179.09,-72.23 299.86,-168.45 362.31,-288.66 38.21,-95.14 24,-173.49 -42.63,-235.03 -83.94,-113.5 -176.89,-173.69 -278.84,-180.56 -103.18,-3.48 -204.41,68.16 -303.7,214.9 89.68,-170.57 192.5,-267.46 308.43,-290.68 69.34,-12.56 142.15,9.74 218.45,66.9 92,78.46 150.4,146.55 175.23,204.24 41.19,117.89 18.3,211.23 -68.67,280.02 -115.32,97.54 -180.44,158.69 -195.36,183.47 191.85,-123.9 287.77,-185.84 287.77,-185.84 139.72,-92.19 261.55,-187.42 365.5,-285.71 97.89,-91.25 164.81,-174.31 200.77,-249.16 104.31,-163.49 159.56,-286.36 165.76,-368.59 3.97,-53.39 1.74,-99.55 -6.69,-138.48 29.3,33.38 53.66,89.66 73.1,168.85 75.74,-127.16 127.9,-233.04 156.5,-317.63 2.03,-33.19 -4.15,-69.57 -18.53,-109.13 -39.59,-111.96 -92.1,-217.84 -157.53,-317.63 -59,-87.74 -120.26,-149.86 -183.78,-186.35 -52.02,-36.64 -129.76,-61.35 -233.2,-74.13 -118.75,-29.61 -232.69,-73.72 -341.82,-132.3 -39.44,18.63 -88.65,-1.44 -147.63,-60.22 -27.72,-15.71 -39.59,-25.49 -41.38,-27.48 -105.87,159.42 -158.8,239.13 -158.8,239.13 47.7,102.43 75.3,166.93 82.81,193.49 126.29,-101.59 217.4,-145.8 273.33,-132.62 -98.24,38.13 -177.52,98.99 -237.84,182.58 -19.88,35.28 -25.84,63.09 -17.88,83.44 186.11,-172.64 368.33,-199.19 546.67,-79.64zm-254.96 536.41c131.88,70.03 239.98,194.3 324.27,372.83 -195.88,-252.42 -373.36,-371.3 -532.45,-356.64 6.66,-9.97 20.06,-15.92 40.18,-17.86 31.19,-35.87 87.18,-35.32 168,1.67zm-389.38 910.17c41.09,31.69 67.41,56.55 78.97,74.6 46.77,20.56 81.04,38.16 102.78,52.78 -29.38,6.22 -66.68,-1.98 -111.91,-24.6 -68.56,-16.27 -125.44,-63.1 -170.64,-140.48 -48.08,-79.22 -76,-150.92 -83.73,-215.09 56.39,123.06 117.9,207.32 184.53,252.79zm325.22 -188.58c79.86,96.15 97.65,163.31 53.36,201.48 -4.25,6.03 -7.7,6.65 -10.35,1.86 7.02,-18.27 4.98,-40.74 -6.11,-67.42 -98.93,-160.34 -148.39,-240.5 -148.39,-240.5 36.01,27.04 73.17,61.9 111.49,104.59z"/>
   <path class="fil3" d="M4482.07 8895.5c44.1,43.49 109.9,97.25 197.37,161.26 238.94,181.92 454.54,325.79 646.78,431.61 186.42,105.11 330.06,173.44 430.91,204.99 44.09,9.65 85.05,0.96 122.86,-26.06 117.17,-86.49 206.39,-194.04 267.66,-322.67 11.67,95.96 -62.38,214.27 -222.15,354.94 11.8,4.75 40.64,-4.01 86.54,-26.27 31.7,-35.42 89.96,-104.08 174.78,-205.97 43.68,-57.73 4.95,-140.19 -116.16,-247.38 0,0 -133.01,-111.14 -399.04,-333.43 0,0 -156.14,-124.23 -468.41,-372.69 0,0 -114.37,-88.38 -343.11,-265.13 -51.58,-30.99 -106.41,-56.24 -163.49,-75.29 31.57,-1.83 115.65,20.05 252.22,65.61 -89.18,-80.17 -168.76,-170.4 -237.17,-268.89 96.66,55.69 187.07,121.58 269.7,196.53 118.32,97.46 290.91,248.07 517.77,451.84 362.73,321.78 617.83,498.56 765.29,530.33 88.25,13.53 146.48,11.8 174.69,-5.19 105.3,-67.45 186.52,-146.57 243.67,-237.36 36.43,-73.93 31.98,-148.85 -13.35,-224.75 -59.14,-69.57 -138.62,-155.42 -238.46,-257.56 -158.7,-155.24 -307.83,-299.11 -447.41,-431.63 -145.93,-139.43 -285.83,-286.44 -419.69,-441.01 -85.82,-98.56 -163.59,-208.46 -233.3,-329.69 0,0 56.16,58.15 168.47,174.44 -22.08,-80.21 -31.29,-163.42 -27.3,-246.52 7.31,11.2 25.8,65.94 55.45,164.21 25.18,88.33 60.81,151.76 106.86,190.29 164.53,181.73 340.9,361.29 529.09,538.67 322.13,295.57 541.81,456.94 659.04,484.13 78.9,44.85 192.53,-3.71 340.89,-145.67 85.09,-91.86 136.27,-210.23 153.52,-355.11 4.65,-124.68 -31.51,-248.27 -108.5,-370.78 -77.33,-122.31 -214.4,-271.41 -411.2,-447.3 -196.06,-155.38 -355.91,-298.37 -479.53,-428.96 -96.08,-69.65 -196.12,-133.68 -299.6,-191.76 77.66,12.41 152.33,39.22 220.14,79.06 -93.56,-154.19 -144.78,-270.41 -153.65,-348.66 71.27,132.43 128.8,218.83 172.59,259.18 113.27,110.15 246.78,246.51 400.51,409.09 161.48,193.51 345.2,345.06 551.16,454.66 125.11,68.11 222.51,72.22 292.2,12.33 80.96,-55.41 176.57,-194.81 286.84,-418.2 -30.12,109.09 -75.42,213.41 -134.58,309.9 -40.88,78.67 -112.01,151.05 -213.39,217.14 120.37,6.88 221.17,-73.37 302.39,-240.73 32.76,-70.31 64.39,-132.5 94.9,-186.58 5.27,-36.82 19.86,-79.6 43.77,-128.35 2.79,-83.85 -16.8,-166.93 -56.77,-240.7 4.62,46.34 -7.17,92.83 -33.31,131.38 2.24,-48.66 -4.44,-97.32 -19.7,-143.58 -22.2,-50.62 -48.6,-124.56 -79.18,-221.84 -59.87,-98.4 -151.32,-201.88 -274.35,-310.46 -148.71,-139.58 -244.95,-232.33 -288.7,-278.25 -10.64,-15.37 -8.24,-16.84 7.22,-4.39 0,0 125.17,93.81 375.53,281.43 -133.26,-137.14 -282.89,-286.99 -448.91,-449.52 -74.33,-100.52 -178.83,-193.84 -313.51,-279.96 124.87,134.76 219.33,262.2 283.37,382.34 -191.34,-183.63 -364.16,-337.9 -518.46,-462.83 -140.86,-109.28 -311.63,-122.62 -512.31,-40.03 -98.63,56.03 -169.9,128.15 -213.79,216.36 -59.74,102.35 -124.31,190.91 -193.71,265.68 -56.12,60.32 -129.18,102.7 -219.19,127.13 -110.71,26.66 -192.68,58.08 -245.93,94.25 -40.84,23.38 -95.98,70.44 -165.4,141.18 -8.69,10.44 -26.1,33.7 -52.22,69.76 -14.25,21.37 -32.18,70.93 -53.78,148.69 -15.95,71.73 -43.49,149.81 -82.63,234.22 -30.37,69.17 -129.81,167.76 -298.35,295.78 -67.7,62.41 -105.4,141.32 -113.1,236.71 -4.64,48.83 -2.05,147.23 7.76,295.21 4.9,125 -18.81,264.27 -71.12,417.82 -23.53,76.42 -83.05,175.69 -178.54,297.81 -61.84,89.31 -73.2,185.61 -34.08,288.92 67.35,111.32 141.68,216.51 222.99,315.59 -15.71,-1.96 -62.13,-35.79 -139.27,-101.49 59.34,106.16 96.88,179.25 112.61,219.28 26.94,27.83 57.81,84.87 92.6,171.13 13.31,42.22 11.78,42.56 34.97,88.04 0.84,1.64 1.7,3.34 2.61,5.1 -0.03,0 -0.06,0 -0.1,0 30.39,60.47 66.34,85.54 95.55,95.83 31.92,-47.86 48.73,-71.79 48.73,-71.79 -67.14,-74.02 -104.88,-138.88 -113.23,-194.58 0,0 24.9,26.01 74.69,78.02 -29.96,-104.87 -42.49,-174.49 -37.58,-208.85zm2033.55 31.3c64.87,-74.41 104.86,-153.08 119.97,-236.01 4.69,9.71 5.57,29.77 2.65,60.17 -10.03,49.63 -33.51,115.54 -70.45,197.74 -59.79,92.5 -132.71,150.09 -218.75,172.78 -70.05,10.07 -73.69,-4.59 -10.92,-43.99 50.81,-20.47 109.98,-70.7 177.5,-150.69zm308.42 -650.11c84.24,-62.62 133.45,-107.57 147.65,-134.86 -29.24,100.76 -107.12,180.11 -207.33,211.21 28.54,-31.94 48.43,-57.39 59.68,-76.34zm543.52 -849.23c5.49,-29.92 25.15,-56.21 58.99,-78.89 110.55,-149.95 185.89,-270.73 226.02,-362.36 9.43,108.87 -45.2,220.4 -163.9,334.59 0,0 -40.37,35.55 -121.1,106.65zm-2365.74 -1072.49c-4.95,-0.72 -31.72,42.41 -80.3,129.41 2.78,-38.91 11.98,-69.15 27.6,-90.7 13.16,-44.48 50.68,-101.36 112.56,-170.63 83.04,-86.81 176.36,-138.32 279.97,-154.5 -24.45,7.56 -66.99,31.1 -127.62,70.62 -77.81,61.34 -148.54,133.28 -212.22,215.8zm933.51 3166.48c41.27,-43.57 79.73,-97.55 115.37,-161.95 4.74,30.81 -12.5,77.39 -51.71,139.76 -39.38,65.18 -79.87,100.79 -121.46,106.83 -25.49,0.79 -6.22,-27.42 57.8,-84.63zm368 -535.56c32.71,-18.83 60.7,-39.2 83.98,-61.1 6.77,-13.16 27.56,-34.2 62.36,-63.11 39.77,-41.44 65.67,-77.39 77.69,-107.87 -19.08,73.44 -47.83,129.94 -86.24,169.47 -11.57,35.19 -57.5,56.05 -137.79,62.61zm504.83 -569.3c-16.17,-2.85 -16.05,-8.27 0.39,-16.27 68.5,-25.45 123.53,-64.33 165.09,-116.65 162.52,-171.78 249.98,-295.27 262.36,-370.48 16.05,101.06 -16.51,200.01 -97.66,296.85 -102.66,126.76 -212.71,195.61 -330.18,206.56zm-979.37 -2691.68c7.53,-60.84 33.23,-123.53 77.1,-188.07 38.13,-48.81 110.29,-98 216.49,-147.57 26.55,-9.39 38.49,-8.61 35.82,2.34 -11.21,2.05 -44.56,22.04 -100.07,59.96 -44.63,50.23 -121.08,141.34 -229.34,273.34zm-452.79 438.73c-30.93,6.57 -60.77,26.97 -89.54,61.2 -27.92,14.51 -68.9,59.08 -122.96,133.71 -62.29,64.88 -105.79,135.15 -130.49,210.78 -8.51,-66.08 13.96,-138.13 67.39,-216.16 93,-108.87 184.86,-172.05 275.59,-189.53zm6.53 -1.18c-2.17,0.37 -4.35,0.76 -6.53,1.18 2.17,-0.46 4.35,-0.85 6.53,-1.18zm-800.94 925.31c-39.63,49.59 -81.49,140.77 -125.6,273.56 -26.2,-93.99 -11.37,-186.68 44.48,-278.06 63.23,-80.7 129.46,-123.63 198.7,-128.79 7.34,-0.05 10.4,1.75 9.16,5.4 -55.52,54.22 -97.77,96.85 -126.75,127.89zm-420.76 1368.5c-30.77,-133.2 13.53,-240.08 132.92,-320.63 -82.64,110.12 -126.95,216.99 -132.92,320.63z"/>
   <path class="fil4" d="M7876.91 6540.76c47.7,102.43 75.3,166.93 82.81,193.49 126.29,-101.59 217.4,-145.8 273.33,-132.62 -98.24,38.13 -177.52,98.99 -237.84,182.58 -19.88,35.28 -25.84,63.09 -17.88,83.44 186.11,-172.64 368.33,-199.19 546.67,-79.64 -161.87,-57.91 -302.38,-29.55 -421.51,85.06 -107.1,92.87 -168.5,172.7 -184.21,239.47 -36.91,158.01 -88.81,283.03 -155.71,375.06 -92.3,128.75 -162.5,221.72 -210.59,278.9 -60.7,79.03 -114.41,183.46 -161.13,313.3 -17.06,54 -26.31,119.45 -27.74,196.35 16.47,-39.53 44.17,-73.38 79.66,-97.36 -50.97,71.66 -49.59,168.1 3.41,238.28 80.99,114.29 179.48,185.54 295.47,213.77 179.09,-72.23 299.86,-168.45 362.31,-288.66 38.21,-95.14 24,-173.49 -42.63,-235.03 -83.94,-113.5 -176.89,-173.69 -278.84,-180.56 -103.18,-3.48 -204.41,68.16 -303.7,214.9 89.68,-170.57 192.5,-267.46 308.43,-290.68 69.34,-12.56 142.15,9.74 218.45,66.9 92,78.46 150.4,146.55 175.23,204.24 41.19,117.89 18.3,211.23 -68.67,280.02 -115.32,97.54 -180.44,158.69 -195.36,183.47 191.85,-123.9 287.77,-185.84 287.77,-185.84 139.72,-92.19 261.55,-187.42 365.5,-285.71 97.89,-91.25 164.81,-174.31 200.77,-249.16 104.31,-163.49 159.56,-286.36 165.76,-368.59 3.97,-53.39 1.74,-99.55 -6.69,-138.48 29.3,33.38 53.66,89.66 73.1,168.85 75.74,-127.16 127.9,-233.04 156.5,-317.63 2.03,-33.19 -4.15,-69.57 -18.53,-109.13 -39.59,-111.96 -92.1,-217.84 -157.53,-317.63 -59,-87.74 -120.26,-149.86 -183.78,-186.35 -52.02,-36.64 -129.76,-61.35 -233.2,-74.13 -118.75,-29.61 -232.69,-73.72 -341.82,-132.3 -39.44,18.63 -88.65,-1.44 -147.63,-60.22 -27.72,-15.71 -39.59,-25.49 -41.38,-27.48"/>
   <path class="fil5" d="M7778.85 8196.88c-48.08,-79.22 -76,-150.92 -83.73,-215.09 56.39,123.06 117.9,207.32 184.53,252.79 41.09,31.69 67.41,56.55 78.97,74.6 46.77,20.56 81.04,38.16 102.78,52.78 -29.38,6.22 -66.68,-1.98 -111.91,-24.6 -68.56,-16.27 -125.44,-63.1 -170.64,-140.48z"/>
   <path class="fil5" d="M8258.22 8247.48c-4.25,6.03 -7.7,6.65 -10.35,1.86 7.02,-18.27 4.98,-40.74 -6.11,-67.42 -98.93,-160.34 -148.39,-240.5 -148.39,-240.5 36.01,27.04 73.17,61.9 111.49,104.59 79.86,96.15 97.65,163.31 53.36,201.48z"/>
   <path class="fil5" d="M8269.03 7324.41c131.88,70.03 239.98,194.3 324.27,372.83 -195.88,-252.42 -373.36,-371.3 -532.45,-356.64 6.66,-9.97 20.06,-15.92 40.18,-17.86 31.19,-35.87 87.18,-35.32 168,1.67z"/>
   <path class="fil6" d="M6971.69 8141.83c-29.24,100.76 -107.12,180.11 -207.33,211.21 28.54,-31.94 48.43,-57.39 59.68,-76.34 84.24,-62.62 133.45,-107.57 147.65,-134.86z"/>
   <path class="fil5" d="M6808.15 8416.59c-16.17,-2.85 -16.05,-8.27 0.39,-16.27 68.5,-25.45 123.53,-64.33 165.09,-116.65 162.52,-171.78 249.98,-295.27 262.36,-370.48 16.05,101.06 -16.51,200.01 -97.66,296.85 -102.66,126.76 -212.71,195.61 -330.18,206.56z"/>
   <path class="fil5" d="M7488.67 7320.81c118.7,-114.2 173.34,-225.73 163.9,-334.59 -40.13,91.62 -115.47,212.41 -226.02,362.36 -33.84,22.68 -53.5,48.97 -58.99,78.89 80.74,-71.1 121.1,-106.65 121.1,-106.65z"/>
   <path class="fil5" d="M6441.11 8923.28c-11.57,35.19 -57.5,56.05 -137.79,62.61 32.71,-18.83 60.7,-39.2 83.98,-61.1 6.77,-13.16 27.56,-34.2 62.36,-63.11 39.77,-41.44 65.67,-77.39 77.69,-107.87 -19.08,73.44 -47.83,129.94 -86.24,169.47z"/>
   <path class="fil5" d="M6638.23 8750.96c2.93,-30.4 2.05,-50.46 -2.65,-60.17 -15.11,82.93 -55.1,161.6 -119.97,236.01 -67.52,79.99 -126.69,130.23 -177.5,150.69 -62.77,39.39 -59.13,54.06 10.92,43.99 86.05,-22.68 158.96,-80.27 218.75,-172.78 36.93,-82.2 60.42,-148.11 70.45,-197.74z"/>
   <path class="fil5" d="M5998.98 9499.25c39.21,-62.36 56.45,-108.95 51.71,-139.76 -35.63,64.4 -74.09,118.39 -115.37,161.95 -64.03,57.22 -83.3,85.43 -57.8,84.63 41.6,-6.04 82.08,-41.65 121.46,-106.83z"/>
   <path class="fil5" d="M4293.73 8135.64c-119.38,80.55 -163.69,187.43 -132.92,320.63 5.97,-103.64 50.27,-210.51 132.92,-320.63z"/>
   <path class="fil5" d="M4500.45 7083.27c-55.85,91.38 -70.68,184.07 -44.48,278.06 44.11,-132.79 85.97,-223.98 125.6,-273.56 28.98,-31.04 71.23,-73.67 126.75,-127.89 1.23,-3.65 -1.82,-5.45 -9.16,-5.4 -69.24,5.17 -135.47,48.1 -198.7,128.79z"/>
   <path class="fil5" d="M5100.4 6353.17c-53.44,78.03 -75.9,150.08 -67.39,216.16 24.7,-75.64 68.2,-145.9 130.49,-210.78 54.06,-74.63 95.04,-119.2 122.96,-133.71 30.79,-36.63 62.81,-57.42 96.07,-62.38 -92.85,15.66 -186.89,79.23 -282.12,190.71z"/>
   <path class="fil5" d="M4949.12 6393.68c-15.63,21.55 -24.83,51.78 -27.6,90.7 48.58,-87 75.34,-130.13 80.3,-129.41 63.67,-82.53 134.41,-154.46 212.22,-215.8 60.62,-39.52 103.16,-63.06 127.62,-70.62 -103.61,16.19 -196.93,67.69 -279.97,154.5 -61.88,69.27 -99.4,126.15 -112.56,170.63z"/>
   <path class="fil5" d="M5905.88 5536.85c-43.87,64.53 -69.57,127.22 -77.1,188.07 108.26,-132 184.7,-223.11 229.34,-273.34 55.51,-37.92 88.86,-57.91 100.07,-59.96 2.67,-10.95 -9.27,-11.73 -35.82,-2.34 -106.2,49.58 -178.36,98.77 -216.49,147.57z"/>
   <path class="fil4" d="M4411.4 9191.77c30.9,64.17 68.05,90.36 98.06,100.93 31.92,-47.86 48.73,-71.79 48.73,-71.79"/>
   <path class="fil7" d="M9547.45 3031.87l-2362.45 2649.28c276.89,241.01 473.37,461.27 589.42,660.76l1196.92 -1814.02 213.72 830.09 1951.33 -3416.37 -1449.56 1731.42 -139.38 -641.15z"/>
   <path class="fil7" d="M5330.85 9683.21c-264.7,-154.93 -514.55,-326.92 -749.55,-515.98 0,0 -11.43,17.89 -34.27,53.68l-1241.49 1879.04 -217.91 -820.72 -2218.91 3712.69 1715.65 -2028.08 145.44 627.55 2601.04 -2908.17z"/>
   <path class="fil8" d="M4500.75 9290.96c-33.95,-10.9 -66.58,-42.26 -97.89,-94.09 -18.9,0.75 -62.12,39.44 -129.65,116.08l-894.93 1338.89 -222.47 -873.41 -3155.8 5446.43 2485.64 -2861.92 148.32 634.46 2865.98 -3213.47c-44.56,-23.09 -100.92,-56.67 -169.08,-100.73l-2601.04 2908.17 -145.44 -627.55 -1715.65 2028.08 2218.91 -3712.69 217.91 820.72 1195.21 -1808.98z"/>
   <path class="fil9" d="M8971.35 4527.89l-1196.92 1814.02c40,68.75 70.44,135.03 91.33,198.85 0,0 52.93,-79.71 158.8,-239.13 27.88,-41.99 59.44,-89.51 94.67,-142.56l774.14 -1173.4 236.2 884.39 2834.45 -5133.32 -2169.79 2546.06 -151.06 -628.96 -2616 2915.92c53.14,37.17 105.75,74.3 157.82,111.38l2362.45 -2649.28 139.38 641.15 1449.56 -1731.42 -1951.33 3416.37 -213.72 -830.09z"/>
   <path class="fil10" d="M4218.1 9072.21c-5.57,-17.18 -8.35,-25.77 -8.35,-25.77 -150.84,106.02 -203.22,205.27 -157.15,297.73 3.7,35.74 0.64,82.2 -9.2,139.38 -19.94,39.49 -58.13,79.13 -114.58,118.91 -113.35,69.29 -180.1,116.66 -200.25,142.13 -48.4,51.35 -83.47,86.3 -105.22,104.84 -6.54,3.61 -6.14,9.63 1.19,18.05 67.88,135.5 92.22,234.6 73.01,297.31 3.51,4.93 5.61,4.93 6.31,0 10.53,-48.51 9.48,-87.73 -3.15,-117.66 -15.06,-56.22 -35.89,-110.77 -62.51,-163.62 -9.05,-18.15 -8.79,-30.49 0.79,-37.03 56.2,-54.98 84.31,-82.47 84.31,-82.47 30.57,-30.01 59.1,-53.03 85.62,-69.07 74.65,-43.63 128.49,-76.38 161.52,-98.23 49.29,-32.49 73.02,-49.38 71.18,-50.69 26.59,-12.67 41.82,-32.1 45.7,-58.31 10.94,-60.22 16.19,-103.03 15.76,-128.43 -0.12,-21.3 -3.88,-37.32 -11.29,-48.06 -11.98,-30.26 -11.19,-60.81 2.37,-91.66 28.9,-54.82 70.22,-103.93 123.96,-147.34z"/>
   <path class="fil11" d="M4816.27 9440.62c-50.7,97.18 -76.05,145.77 -76.05,145.77 -39.45,-37.24 -65.27,-50.62 -77.46,-40.14 -37.25,-6.6 -58.14,10.07 -62.67,50 -84.11,84.83 -148.89,159.01 -194.36,222.53 -58.51,77.1 -134.56,147.28 -228.16,210.56 -25.36,27.64 -57.52,31.4 -96.48,11.27 -158.88,-72.19 -265.92,-118.2 -321.12,-138.02 -20.64,-3.62 -34.95,-13.8 -42.92,-30.54 -18.5,-20.78 -34.88,-20.78 -49.15,0 -61.51,110.83 -108.89,272.38 -142.14,484.64 -27.72,115.89 -21.02,200.67 20.11,254.36 65.59,124.9 105.56,248.29 119.92,370.18 -2.78,10.39 -0.58,19.12 6.59,26.19 -15.28,25.97 -26.01,191.64 -32.21,497 -13.4,98.72 -10.08,163.26 9.97,193.62 36.66,80.45 28.56,178.57 -24.28,294.38 -54.94,148.96 -146.94,303.08 -276,462.35 -103.59,119.77 -204.38,208.97 -302.36,267.6 -88.43,50.67 -146.38,95 -173.84,132.97 -15.5,23.74 -25.69,48 -30.55,72.8 -3.59,12.37 -10.57,15.33 -20.94,8.87 -64.63,-29.71 -121.46,-52.87 -170.51,-69.48 -43.24,-14.62 -131.45,-33.92 -264.63,-57.91 -111.65,-27.27 -237.72,-64.48 -378.23,-111.62 -83.67,-27.26 -174.92,-43.69 -273.75,-49.28 -69.77,-3.18 -113.88,8.73 -132.32,35.73 -31.58,41.89 -74.05,64.97 -127.39,69.24 -8.85,2.68 -23.96,0.62 -45.34,-6.16 -22.49,-6.24 -47.95,-4.76 -76.39,4.44 -62.02,24.83 -118.45,44.05 -169.28,57.66 -34.91,4.96 -59.47,24.51 -73.68,58.64 -16.06,46.32 -33.88,82.05 -53.47,107.18 -21.44,26.1 -40.49,44.91 -57.17,56.43 -22.76,17.46 -39.85,33.72 -51.25,48.79 -22.48,26.21 -45.47,41.49 -68.99,45.83 24.12,3.37 50.23,-11.66 78.36,-45.09 22.81,-22.53 39.98,-36.41 51.5,-41.64 30.59,-26.18 50.55,-46.55 59.88,-61.11 26.05,-42.91 44.04,-77.73 53.96,-104.47 10.74,-25.54 23.88,-40.16 39.43,-43.86 64.95,-15.04 117.43,-29.58 157.45,-43.61 43.01,-16.24 79.09,-19.34 108.26,-9.32 29.23,8.35 58.65,7.71 88.28,-1.93 -43.53,47.17 -87.84,97.83 -132.93,152 -87.4,96.9 -155.83,193.91 -205.31,291.02 -44.53,95.55 -78.51,176.89 -101.94,244.02 -11.33,26.92 -10.13,56.92 3.6,90.01 58.24,150.4 98.01,325.92 119.32,526.54 5.77,31.95 11.28,56.37 16.52,73.24 -12.02,12.07 -10.32,54.66 5.11,127.75 -90.15,39.29 -188.46,63.55 -294.95,72.78 -105.12,6.9 -184.14,26.39 -237.07,58.46 -95.31,55.1 -182.01,119.9 -260.1,194.4 -96.13,79.62 -158.24,137.98 -186.35,175.08 2.01,1.99 5.29,-0.18 9.84,-6.52 46.14,-44.62 76.69,-73.78 91.62,-87.47 46.52,-34.31 82.44,-60.62 107.76,-78.94 72.2,-52.3 122.33,-85.96 150.38,-100.95 52.98,-33.6 101.36,-60.27 145.14,-79.99 43.92,-18.08 95.39,-29.01 154.41,-32.79 77.71,-3.72 162.27,-18.86 253.68,-45.42 38.66,-13.01 66.94,-21.92 84.82,-26.75 20.17,-5.41 29.29,-14.95 27.36,-28.61 -6.07,-90.64 -15.15,-138.77 -27.26,-144.39 5.7,-76.59 2.96,-145.67 -8.25,-207.25 -26.22,-136.83 -46.03,-228.85 -59.42,-276.06 -29.18,-90.02 -45.48,-137.69 -48.9,-143 -7.71,-17.37 -7.61,-32.92 0.29,-46.63 50.41,-125.28 75.62,-187.92 75.62,-187.92 53.84,-111.05 103.97,-192.55 150.4,-244.5 66.58,-87.45 114.15,-143.27 142.72,-167.45 24.8,-32.17 43.38,-53.4 55.72,-63.68 22.63,-14.48 37.6,-28.03 44.92,-40.66 28.77,-46.06 64.12,-67.48 106.04,-64.25 101.86,4.94 197.29,19.73 286.29,44.35 89.75,27.88 185.08,55.27 286,82.16 83.55,25 181.82,45.19 294.82,60.56 81.1,15.86 146.02,39.27 194.75,70.22 10.73,4.58 18.22,5.72 22.46,3.41 45.24,38.11 80.78,32.9 106.61,-15.64 10.97,-40.93 26.61,-69.45 46.91,-85.57 31.73,-31.12 79.02,-62.68 141.87,-94.67 61.59,-39.29 111.34,-76.63 149.26,-112.02 73.4,-66.57 125.05,-119.17 154.94,-157.79 69.01,-89.19 118.95,-158.85 149.83,-208.96 67.57,-113.7 108.7,-192.55 123.39,-236.54 17.63,-39.99 26.44,-59.99 26.44,-59.99 9.6,82.22 5.71,151.31 -11.66,207.25 -18.87,73.06 -53.75,162.43 -104.62,268.09 -44.87,95.81 -74.34,181.85 -88.42,258.15 -12.3,44.53 -15.9,105.93 -10.8,184.23 2.85,68.61 -6.72,125.47 -28.71,170.58 -15.57,45.69 -39.41,89.57 -67.95,129.93 -21.11,40.78 -45.18,58.69 -73.78,53.73 -74.55,-17.78 -134.91,-22.89 -182.66,-15.35 -54.22,7.72 -103.5,23.17 -147.84,46.34 -40.9,21.28 -67.24,51.42 -79.04,90.41 -53.45,145.37 -80.17,218.06 -80.17,218.06 -34.07,88.39 -71.02,132.55 -110.88,132.48 -81.11,5.64 -139.96,13.31 -176.55,23.03 -110.34,27.88 -168.5,43.84 -174.47,47.87 85.83,-20.66 128.75,-31 128.75,-31 86.89,-17.89 148.35,-26.37 184.37,-25.44 51.02,2.47 85.34,-8.81 102.97,-33.84 31.74,-41.82 56.61,-90.8 74.62,-146.93 46.66,-124.37 69.99,-186.56 69.99,-186.56 10.85,-34.59 35.53,-60.34 74.04,-77.23 67.06,-30.38 137.45,-44.41 211.18,-42.1 32.57,2.48 62.08,8.26 88.53,17.36 36.17,5.19 59.89,-0.09 71.18,-15.85 50.44,-65.82 84.22,-118.89 101.36,-159.21 32.59,-75.19 47.09,-135.72 43.51,-181.59 -2.71,-100.5 1.65,-172.43 13.08,-215.8 19.32,-71.54 42.03,-135.84 68.16,-192.91 52.38,-112.18 86.33,-190.15 101.86,-233.91 32.57,-90.24 45.81,-158.73 39.74,-205.48 -0.67,-74.8 -4.1,-127.62 -10.31,-158.45 19.52,-94.32 22.2,-157.53 8.05,-189.64 -27.67,-61.91 -38.15,-118.34 -31.44,-169.27 8.82,-113.29 13.6,-190.09 14.34,-230.39 10.56,-173.21 15.85,-259.81 15.85,-259.81 0.8,-36.58 -3.05,-59.13 -11.57,-67.66 9.19,-30.5 6.93,-81.39 -6.79,-152.67 -22.66,-93.39 -50.12,-170.25 -82.38,-230.58 -51.3,-71.73 -63.16,-153.41 -35.58,-245.03 28.31,-174.18 59.91,-302.22 94.81,-384.11 11.93,-32.09 17.9,-48.13 17.9,-48.13 5.23,-12.85 10.37,-16.21 15.44,-10.08 28.63,15.35 49.85,24.28 63.65,26.79 27.75,10.82 61.57,26.78 101.47,47.9 145.59,71.43 218.38,107.14 218.38,107.14 37.76,25.44 69.48,24.18 95.17,-3.78 169.87,-130.1 282.07,-225.74 336.61,-286.93 62.25,-74.48 107.31,-133.79 135.17,-177.94 34.2,27.8 64.64,38.18 91.32,31.16 25.03,8.91 42.67,30.66 52.91,65.23 22.34,74.07 48.71,107.96 79.12,101.66 80.26,-4.74 132.84,10.59 157.74,45.99 19.93,34.77 31.11,104.7 33.53,209.78 5.74,115.69 -0.84,220.8 -19.73,315.31 -16.16,75.9 -32.99,124.67 -50.49,146.3 -13.06,24.37 -31.49,30.34 -55.3,17.91 -42.39,-16.22 -78.04,-12.59 -106.96,10.9 -46.63,50.24 -95.26,90.39 -145.9,120.46 -64.37,41.17 -102.88,76.13 -115.53,104.88 -9.26,3.87 -11.59,10.87 -7.01,21.03 8.66,34.55 23.63,78.85 44.91,132.92 21.23,54.49 31.85,81.73 31.85,81.73 23.85,26.15 25.65,44.26 5.4,54.34 -49.46,21.2 -82.64,42.58 -99.56,64.12 -28.77,29.21 -53.97,58.69 -75.6,88.42 51.91,-56.11 88.81,-90.87 110.7,-104.29 31.33,-21.17 57.66,-34.33 78.98,-39.49 26.37,-11.37 31.43,-28.58 15.19,-51.64 -19.91,-33.03 -42.41,-93.66 -67.5,-181.91 -9.34,-23.54 -16.79,-41.11 -22.35,-52.74 57.13,-57.06 97.72,-90.32 121.79,-99.78 66.05,-46.16 111.25,-85.19 135.58,-117.09 27.26,-20.8 52.5,-24.91 75.72,-12.33 36.84,24.31 63.64,25.58 80.41,3.82 38.65,-54.77 61.64,-114.93 68.97,-180.49 19.6,-99 26.64,-179.41 21.13,-241.23 -0.49,-94.54 -5.96,-173.77 -16.29,-236.81 1.9,-57.33 -11.31,-90.51 -39.47,-98.63 -18.82,-9.85 -32.71,-19.04 -41.67,-27.59 -21.31,-16.06 -45.37,-19.68 -72.19,-10.86 -43.99,13.5 -70.7,-7.43 -80.12,-62.8 -21.32,-102.43 -2.65,-194.73 56.01,-276.91 -38.66,-9 -67.71,-18.82 -87.15,-29.48z"/>
   <path class="fil12" d="M5795.74 9865.88c-21.98,-5.16 -32.97,-7.74 -32.97,-7.74 -41.81,103.56 -79.47,167.4 -112.97,191.51 -7.95,7.14 -15.76,12.39 -23.43,15.74 -13.29,3.66 -16.7,13.19 -10.23,28.58 7.12,81.45 -0.54,148.31 -22.97,200.59 -18.18,45.15 -38.23,78.63 -60.14,100.44 -12.36,16.45 -25.89,25.35 -40.57,26.68 -69.26,-5.31 -119.15,14.08 -149.69,58.14 34.27,-24.93 63.05,-38.39 86.34,-40.35 20.24,-2.46 39.98,-2.6 59.22,-0.43 19.1,2.82 33.13,-3.04 42.09,-17.57 37.97,-49.74 59.81,-84.16 65.51,-103.27 37.15,-105.87 50.82,-182.88 41,-231.04 47.03,-12.35 83.98,-49.95 110.86,-112.81 31.96,-72.31 47.94,-108.47 47.94,-108.47z"/>
   <path class="fil12" d="M5883.95 9881.6c41.82,5.97 62.74,8.96 62.74,8.96 0,0 1.7,15.23 5.12,45.67 7.34,35.79 5.28,65.75 -6.21,89.88 -18.97,23 -25.79,70.74 -20.46,143.22 3.55,43.22 17.8,89.5 42.75,138.84 17.28,27.63 31.41,62.83 42.38,105.59 16.25,65.85 9.55,147.94 -20.09,246.25 -21.01,70.34 -53.65,143.65 -97.92,219.94 -19.43,29.07 -58.52,47.34 -117.28,54.8 -27.12,12.13 -64.99,49.88 -113.63,113.26 -21.69,20.93 -74.43,71.96 -158.2,153.08 -24.72,20.9 -51.14,25.65 -79.28,14.25 -93.66,-21.98 -183.41,-33.92 -269.27,-35.81 -103.73,1.54 -184.96,23.95 -243.69,67.22 -39.68,43.44 -78.04,75.69 -115.09,96.76 0,0 -55.32,218.08 -165.97,654.24 0,0 -123.96,51.65 -371.88,154.95 -65.36,24.72 -125.05,50.43 -179.05,77.13 -104.82,58.84 -231.07,112.56 -378.77,161.15 0,0 137.04,-71.16 411.13,-213.49 0,0 154.83,-70.23 464.5,-210.68 0,0 15.69,-65.17 47.09,-195.51 0,0 32.77,-141.34 98.32,-424.01 1.74,-19.87 9.72,-32.31 23.92,-37.3 19.81,-13.43 37.65,-26.93 53.54,-40.52 42.26,-42.88 83.87,-77.12 124.82,-102.72 48.4,-26.66 125.5,-40.45 231.3,-41.37 101.41,6.79 186.41,19.79 255.02,38.98 29.31,10.05 59.85,-5.45 91.64,-46.51 44.95,-52.81 82.15,-85.33 111.59,-97.56 19.19,-22.66 49.59,-57.63 91.19,-104.9 21.47,-23.46 55.48,-40.15 102.03,-50.06 28.3,-3.48 49.2,-23.32 62.7,-59.52 31.59,-57.33 62.79,-142.67 93.59,-256.03 20.82,-80.55 -0.84,-173.17 -64.98,-277.85 -27.43,-76.42 -32.45,-166.44 -15.03,-270.09 9.9,-15.24 10.38,-55.32 1.45,-120.26z"/>
   <path class="fil13" d="M9235.71 7516.89c-13.77,22.06 -20.65,33.09 -20.65,33.09 6.56,8.22 -3.05,39.83 -28.84,94.81 -23.15,62.84 -29.86,138.91 -20.14,228.2 4.54,165.99 -7.06,297.89 -34.8,395.72 -15.31,72.35 -33.82,117.01 -55.52,133.96 -75.55,61.88 -134.06,133.15 -175.55,213.8 -2.47,8.04 -0.41,8.7 6.18,1.95 40.03,-65.51 77.64,-113.79 112.83,-144.83 25.48,-24.1 45.4,-41.09 59.73,-50.97 29.75,-21.01 46.97,-44.87 51.68,-71.59 27.68,-121.25 43.85,-217.37 48.5,-288.35 5.54,-96.85 6.48,-179.07 2.84,-246.65 2.8,-46.61 11.31,-91.97 25.52,-136.09 0.61,-7.05 -0.99,-12.73 -4.81,-17.04 28.35,-61.31 42.53,-91.97 42.53,-91.97 7.65,-18.01 4.49,-36.03 -9.48,-54.05z"/>
   <path class="fil0" d="M8273.14 8579.38c-36.76,21.28 -54.01,37.98 -55.14,31.92 5.56,36.97 50.64,144.17 89.2,276.66 24.94,63.09 57.46,113.63 97.57,151.63 14.85,8.57 12.26,36.75 -7.77,84.52 -18.56,38.03 -45.59,102.56 -81.1,193.58 -45.14,-3.57 -153.99,26.88 -326.57,91.35 -79.21,29.75 -165.8,43.42 -259.76,41.01 -93.74,-1.83 -180.12,8.01 -259.14,29.52 -72.98,18.82 -125.59,40.36 -157.85,64.63 -41.94,-15.53 -86.48,-47.64 -133.61,-96.32 0,0 -74.99,-72.19 -224.96,-216.57 0,0 -11.7,10.77 -35.11,32.31 0,0 68.36,66.6 205.09,199.81 -44.95,-21.59 -77.93,-21.41 -98.95,0.56 -15.26,13.97 -29.84,18.96 -43.74,14.96 -55.67,-13.35 -101.51,-34.05 -137.5,-62.1 -9.87,-7.15 -24.05,-11.08 -42.54,-11.8 -20,8.31 -42.73,10.92 -68.2,7.83 0,0 -9.44,7.08 -28.32,21.24 0,0 -1.85,-22.25 -5.54,-66.75 -9.79,-134.57 -2.57,-266.21 21.66,-394.92 14.93,-84.87 27.29,-148.52 37.06,-190.95 2.97,-30.46 10.38,-51.03 22.23,-61.69 24.3,-24.8 41.81,-52.49 52.53,-83.05 10.07,-29.61 31.58,-46.83 64.52,-51.66 83.73,0.79 170.71,-1.24 260.92,-6.11 38.93,-4.92 65.09,-24.6 78.47,-59.07 3.23,-14.92 15.73,-31.48 37.49,-49.7 16.39,-11.88 32.67,-35.27 48.83,-70.19 -3.41,-4.27 -6.03,-13.79 -7.85,-28.55 -3.49,-22.85 -17.98,-18.28 -43.48,13.69 -0.85,6.89 -10.94,23.51 -30.27,49.87 -14.32,8.15 -30.75,27.84 -49.29,59.1 -10.3,15.93 -22.99,26.3 -38.05,31.13 -13.63,0.99 -58.79,3.01 -135.49,6.05 -66.78,-0.13 -117.9,2.27 -153.36,7.21 -38.22,7.47 -65.03,36.3 -80.43,86.48 -5.26,19.33 -12.75,35.76 -22.48,49.29 -15.73,13.25 -28.26,33.29 -37.59,60.13 -4.65,16.13 -18.75,78.9 -42.32,188.33 -21.69,101.81 -32.28,224.49 -31.77,368.03 -1.94,22.8 4.17,74.49 18.32,155.06 -7.11,14.21 -7.29,33.4 -0.52,57.57 12.69,22.46 28.94,43.96 48.75,64.48 7.86,6.32 19.21,18.19 34.05,35.61 26.65,36.71 45.61,70.94 56.87,102.68 12.56,30.09 12.67,59.36 0.34,87.82 -12.04,32.28 -40.33,56.66 -84.87,73.12 -19.62,7.77 -38.12,16.87 -55.49,27.31 -58.07,38.05 -106.94,66.46 -146.59,85.23 -18.91,9.91 -51,14.35 -96.29,13.31 -27.49,-0.04 -47.77,8.49 -60.85,25.58 -12.23,16.35 -29.23,28.45 -50.99,36.3 -19.77,8.64 -25.19,22.99 -16.25,43.04 17.79,20.59 36.63,52.57 57.22,96.63 12.65,22.6 21.41,47.78 26.97,76.24 -3.8,5.03 -1.5,14.65 6.91,28.87 0.92,25.66 -4.78,44.85 -17.11,57.56 -13.94,13.39 -53.01,49.69 -117.2,108.91 -17.99,15.52 -16.92,39.23 3.21,71.13 20.78,31.31 42.85,96.11 66.2,194.42 3.25,26.61 -4.17,51.97 -22.27,76.09 0,0 -36.41,61.87 -109.22,185.6 -8.27,17.33 -5.91,17.72 7.11,1.19 1.38,2.18 44.9,-68.77 130.57,-212.83 11.21,-25.01 9.58,-64.56 -4.87,-118.65 -7.6,-45.13 -25.73,-94.71 -54.41,-148.76 -3.13,-13.67 2.63,-29.61 17.26,-47.84 30.25,-21.29 69.65,-59.17 118.2,-113.65 16.42,-16.47 15.15,-55.22 -3.8,-116.27 -11.33,-43.83 -35.05,-94.42 -71.14,-151.76 16.5,-5.74 34.79,-19.25 54.88,-40.54 12.07,-12.65 38.43,-19.51 79.09,-20.56 29.28,4.53 83.33,-17.81 162.15,-67.02 39.5,-28.57 87.88,-55.16 145.15,-79.77 48.61,-27.32 74.21,-69.06 76.82,-125.21 0,0 -3.46,-2.94 -10.36,-8.83 -2.93,-68.39 -37.25,-137.43 -102.96,-207.1 -3.16,-10.43 -12.38,-26.31 -27.65,-47.66 0.97,-11.8 0.29,-25.92 -2.06,-42.36 7.71,-9.25 18.99,-15.24 33.83,-17.94 17.04,2.11 36.25,0.15 57.66,-5.88 14.43,-5.72 32.37,-0.03 53.84,17.06 24.92,21.7 61.89,37.58 110.9,47.65 24.11,9.34 45.29,8.36 63.54,-2.94 11.82,-11.17 26.92,-14.01 45.3,-8.53 0,0 36.28,13.53 108.85,40.6 14.84,19.32 34.49,36.25 58.96,50.8 35.39,23.59 63.84,27.89 85.36,12.9 25.1,-3.16 78.26,-18.73 159.5,-46.7 71.44,-22 150.86,-34.8 238.25,-38.39 81.14,-0.61 156.6,-10.5 226.38,-29.68 96.12,-31.16 178.17,-58.21 246.17,-81.13 43.55,-17.22 84.05,-25.01 121.5,-23.35 23.09,4.29 35.89,-3.23 38.39,-22.56 9.38,-31.18 24.42,-68.12 45.12,-110.82 22.96,-14.72 44.59,-61.42 64.91,-140.1 13.91,-26.97 -3.88,-67.34 -53.37,-121.13 -36.56,-46.13 -97.78,-189.87 -137.64,-386.25z"/>
   <path class="fil4" d="M10724.02 2262.34c29.85,-35.3 44.78,-52.96 44.78,-52.96 0,0 0,-10.88 0,-32.64 5.68,-13.05 1.52,-48.93 -12.5,-107.65 0,0 -18.29,-108.35 -54.87,-325.04 0,0 -15.86,-95.73 -47.57,-287.19 0,0 -13.2,-91.68 -39.59,-275.03 -2.56,-40.29 10.52,-67.02 39.24,-80.22 33.39,-11.03 77.6,-14.28 132.65,-9.72 79.9,8.4 167.84,1.66 263.84,-20.21 194.07,-36.25 365.52,-121.21 514.36,-254.88 -174.29,143.94 -381.1,230.73 -620.44,260.39 -51.1,7.46 -124.27,6.7 -219.52,-2.3 -32.25,-4.55 -64.09,-1.18 -95.53,10.1 -42.06,27.34 -51.24,87.2 -27.55,179.57 0,0 17.45,106.44 52.34,319.32 0,0 28.17,197.2 84.52,591.59 0,0 2.6,2.6 7.81,7.8 0,0 -7.32,26.36 -21.96,79.07z"/>
   <path class="fil14" style="mask:url(#id0)" d="M7905.1 6399.24c-9.18,-19.54 -13.77,-29.3 -13.77,-29.3 0,0 33.75,-21.63 101.25,-64.88 11.8,-12.79 28.4,-16.73 49.8,-11.79 83.18,9.76 164.22,25.6 243.12,47.51 70.59,17.25 132.41,28.06 185.46,32.44 48.22,0.13 89.83,6.56 124.84,19.29 14.16,8.34 32.01,6.06 53.57,-6.84 29.44,-21.73 63.55,-43 102.34,-63.81 26.62,-18.91 106.12,-36.49 238.52,-52.75 148.14,-29 277.06,-76.37 386.75,-142.11 25.21,-12.03 45.49,-34.06 60.87,-66.08 18.01,-36.81 45.89,-76.49 83.66,-119.04 17.36,-22 43.23,-47.71 77.58,-77.14 4.1,-2.12 5.92,-1.35 5.47,2.29 -67.3,63.11 -126.72,146.4 -178.25,249.88 -13.62,19.08 -71.4,48.82 -173.36,89.21 -62.21,29.36 -158.69,57.24 -289.44,83.64 -76.29,10.02 -145.06,31.31 -206.31,63.87 -15.62,10.99 -24.75,12.68 -27.37,5.07 -6.34,3.69 -31.01,21.6 -74,53.73 -19.8,17.36 -45.31,18.54 -76.54,3.55 -14.35,-11.11 -62.68,-17.88 -144.97,-20.27 -36.87,-0.87 -127.94,-20.81 -273.21,-59.81 0,0 -38.69,-5.24 -116.08,-15.71 -10.77,-2.16 -22.26,1.22 -34.47,10.14 -9.86,13.45 -45,36.43 -105.43,68.94z"/>
   <path class="fil15" style="mask:url(#id2)" d="M9754.72 3806.42c118.71,77.98 206.76,137.5 264.17,178.56 77.75,51.15 130.54,96.12 158.37,134.91 -9.66,24.59 -18.82,68.63 -27.49,132.12 -7.67,93.24 -2.94,176.29 14.19,249.16 15.72,76.26 24.44,134.04 26.16,173.35 -1.15,71.38 -8.25,166.85 -21.28,286.41 -16.01,86.14 -17.63,149.1 -4.88,188.87 -16.29,7.43 -55.3,34.03 -117.04,79.8 -15.87,10.04 -44.54,29.7 -86.01,58.97 -22.65,16 -44.37,15.11 -65.17,-2.67 -17.79,-16.11 -69.07,-34.73 -153.85,-55.85 -121.66,-15.96 -295.6,-15.66 -521.82,0.89 -117.05,12.7 -218.28,27.33 -303.69,43.89 -21.32,2.96 -60.36,1.2 -117.13,-5.27 -66.39,-2.41 -123.66,20.7 -171.8,69.33 -79.34,68.08 -171.71,171.47 -277.12,310.17 -32.05,31.94 -95.66,79.14 -190.82,141.6 -48.33,35.51 -91.03,57.98 -128.11,67.43 -67.74,9.95 -115.16,45.24 -142.27,105.86 -8.52,25.76 -35.27,70.94 -80.24,135.53 3.34,32.64 25.59,58.94 66.75,78.89 75.97,-125.86 113.95,-188.8 113.95,-188.8 15.95,-21.91 29.21,-32.25 39.78,-31.02 40.17,-16.05 68.72,-30.89 85.63,-44.5 165.09,-97.11 272.3,-176 321.63,-236.67 99.17,-141.78 182.55,-236.18 250.15,-283.19 29.79,-30.33 70.8,-46.86 123.02,-49.57 88.77,-2.39 145.87,-11.75 171.31,-28.1 92.15,-16.98 186.14,-27.92 281.97,-32.81 184.15,-7.12 307.55,-8.15 370.2,-3.1 102.3,4 182.99,21.44 242.07,52.32 42.66,20.49 73.84,24.49 93.55,11.97 70.07,-37.24 111.9,-69.6 125.47,-97.09 42.34,-30.87 72.49,-50.38 90.44,-58.53 24.81,-11.5 31.9,-26.13 21.28,-43.89 -11.48,-49.71 -10.6,-102.77 2.66,-159.16 17.37,-145.8 25.06,-250.88 23.05,-315.22 -0.73,-48.49 -6.34,-95.04 -16.85,-139.65 -8.38,-74.68 -12.52,-133.35 -12.41,-176.01 -2.51,-74.75 0.44,-128.99 8.87,-162.71 3.93,-34.28 4.97,-56.59 3.1,-66.95 8.73,-12.88 8.88,-26.78 0.44,-41.67 -29.55,-38.83 -60.61,-67.92 -93.19,-87.26 -17.64,-26.52 -39.26,-61.74 -64.85,-105.66 -5.59,-14.07 -4.78,-27.48 2.41,-40.24 5.33,-18.25 4.09,-34.7 -3.74,-49.36 -27.35,-54.78 -52.28,-90.93 -74.79,-108.44 -17.13,-12.67 -27.23,-32.37 -30.29,-59.08 1.79,-18.18 0.41,-32.27 -4.11,-42.25 -2.85,-29.88 10.49,-55.93 40.01,-78.15 -18.8,8.74 -34.88,21.82 -48.24,39.26 -11.48,10.42 -13.47,22.51 -5.98,36.27 5.89,16.98 7.88,33.56 5.98,49.74 1.64,26.93 10.86,45.75 27.67,56.46 31.4,31.66 57.7,67.81 78.9,108.44 6.07,15.92 6.35,29.43 0.83,40.52 -21.57,36.49 -15.91,73.37 16.97,110.64 -166.13,-111.2 -249.2,-166.8 -249.2,-166.8 -113.19,-75.91 -181.19,-140.57 -204.01,-194.01 -21.11,-41.86 -34.99,-76.72 -41.64,-104.59 13.07,-40.95 14.47,-72.69 4.19,-95.23 -23.3,-67.4 -39.44,-106.14 -48.42,-116.21 -23.71,-38.66 -33.61,-96.87 -29.7,-174.63 18.05,-186.41 37.74,-292.4 59.07,-317.96 62.66,-6.32 151,-16.21 265.02,-29.7 126.43,-14.47 226.5,-24.16 300.2,-29.05 105.45,-12.7 158.17,-19.05 158.17,-19.05 33.09,2.25 61.18,-4.53 84.25,-20.33 16.94,-17.68 39.75,-30.59 68.43,-38.74 48.5,-15.83 100.37,-20.88 155.59,-15.17 107.49,26.52 178.08,36.75 211.76,30.67 63.53,-6.02 131.53,-28.72 204.01,-68.11 91.5,-58.1 150.68,-100.06 177.54,-125.89 30.73,-29.75 44.29,-60.2 40.68,-91.35 -2.45,-37.22 1.21,-62.61 10.97,-76.18 29.08,-50.09 50.38,-79.89 63.91,-89.42 53.11,-75.47 87.22,-127.76 102.33,-156.88 37.83,-47.37 50.31,-83.31 37.45,-107.82 -40.53,-83.92 -64.53,-142.66 -71.98,-176.25 -32.88,-113.63 -46.66,-191.21 -41.32,-232.74 3.07,-60.33 14.37,-102.61 33.89,-126.86 37.15,-57.84 59.75,-100.55 67.79,-128.15 155.8,-77.26 233.7,-115.89 233.7,-115.89 142.46,-69.94 213.7,-104.91 213.7,-104.91 103.51,-50.36 155.26,-75.54 155.26,-75.54 45.19,-238.01 67.79,-357.02 67.79,-357.02 23.29,-139.9 42.77,-229.85 58.43,-269.86 32.39,-116.09 54.67,-236.49 66.82,-361.21 -62.19,225.96 -93.29,338.94 -93.29,338.94 -24.13,80.81 -50.6,190.02 -79.41,327.64 -26.68,130.84 -45.4,222.62 -56.17,275.35 -198.23,92.48 -377.48,176.32 -537.74,251.53 -48.41,15.99 -73.18,32.33 -74.33,49.04 -20.49,53.29 -41.75,93.46 -63.78,120.52 -50.99,74.51 -65.48,160.84 -43.46,258.98 26.64,108.08 60.03,207.4 100.16,297.96 10.09,29.4 8.94,53.72 -3.47,72.97 -56.06,78.97 -87.58,132.03 -94.55,159.2 -34.06,45.73 -63.42,86.2 -88.1,121.43 -18.59,28.98 -25.95,64.45 -22.09,106.41 -1.93,27.14 -16.57,49.76 -43.91,67.88 -77.63,59.61 -143.78,102.93 -198.45,129.94 -65.85,32.14 -125.02,46.08 -177.51,41.82 -33.67,-4.41 -73.32,-14.01 -118.96,-28.81 -44.11,-14.39 -106.28,-12.64 -186.49,5.27 -35.71,6.9 -72.47,19.49 -110.28,37.79 -16.09,7.74 -32.2,11.77 -48.33,12.08 -103.7,16.83 -206.24,30.77 -307.62,41.82 103.37,-44.5 186.4,-91.9 249.07,-142.19 94.38,-64.84 143.43,-124.32 147.15,-178.44 56.19,-4.2 121.05,-27.95 194.54,-71.25 73.95,-57.02 113.6,-98.22 118.96,-123.6 1.33,-11.52 -0.86,-23.87 -6.56,-37.03 -11.18,-54.42 -6.03,-98.53 15.46,-132.35 -16.69,14.18 -28.48,40.81 -35.37,79.88 -0.98,20.4 2.22,42.81 9.6,67.23 1.59,21.32 -3.64,37.79 -15.69,49.43 -36.66,50.98 -82.72,88.22 -138.21,111.73 -51.43,21.56 -94.45,33.51 -129.07,35.84 -12.23,0.11 -18.35,0.16 -18.35,0.16 -12.37,-0.77 -18.75,4.66 -19.15,16.3 -11.87,39.67 -34.31,70.48 -67.33,92.43 -58.16,48.04 -127.45,95.44 -207.88,142.2 -118.09,67.88 -210.42,104.65 -276.97,110.29 -136.73,14.46 -205.09,21.68 -205.09,21.68 -41.73,-0.7 -66.62,7.77 -74.67,25.41 -30.22,21.13 -48.81,83.5 -55.76,187.12 -11.5,133.29 -14.13,227.41 -7.89,282.35 4.77,31.61 13.11,54.67 25.01,69.18 5.98,5.37 7.19,11.29 3.62,17.76 1.37,27.6 10.11,59.88 26.2,96.82 12.78,29.47 16.97,65.32 12.56,107.55 1.59,43.04 17.56,85.9 47.91,128.6 49.33,63.46 113.72,117.31 193.18,161.55z"/>
   <path class="fil4" d="M10214.93 4083.98c-11.36,-14.08 -17.04,-21.11 -17.04,-21.11 37.53,-33.52 82.66,-96.75 135.37,-189.69 97.19,-156.41 145.79,-234.62 145.79,-234.62 16.88,-32.8 26.15,-62.28 27.8,-88.45 2.76,-46.06 15.39,-86.5 37.91,-121.31 11.88,-19.35 17.58,-34.61 17.13,-45.77 17.22,-28.83 25.83,-43.24 25.83,-43.24 -4.76,31.1 -12.9,59.08 -24.43,83.96 -21.8,42.45 -33.5,75.21 -35.1,98.28 -6.41,58.3 -16.15,95.93 -29.2,112.88 -80.87,137.4 -121.3,206.1 -121.3,206.1 -77.41,140.73 -131.66,221.72 -162.75,242.96z"/>
  </g>
 </g>
</svg>
